<svg width="125" height="136" viewBox="0 0 125 136" fill="none" xmlns="http://www.w3.org/2000/svg">
<path d="M79.3949 105.268C80.4495 105.657 81.2859 106.312 81.9041 107.234C82.5223 108.135 82.8314 109.262 82.8314 110.614C82.8314 112.478 82.195 113.922 80.9222 114.946C79.6494 115.95 77.7948 116.451 75.3584 116.451H65.8672V94.944H74.8129C77.0675 94.944 78.804 95.4458 80.0222 96.4495C81.2404 97.4327 81.8495 98.7948 81.8495 100.536C81.8495 101.601 81.6313 102.543 81.195 103.363C80.7586 104.182 80.1586 104.817 79.3949 105.268ZM69.4128 98.0779V104.008H74.4311C75.6675 104.008 76.613 103.762 77.2676 103.27C77.9403 102.758 78.2767 102.021 78.2767 101.058C78.2767 100.075 77.9403 99.3376 77.2676 98.846C76.613 98.334 75.6675 98.0779 74.4311 98.0779H69.4128ZM75.1402 113.318C77.8858 113.318 79.2585 112.283 79.2585 110.214C79.2585 108.145 77.8858 107.111 75.1402 107.111H69.4128V113.318H75.1402Z" fill="#DE5316"/>
<path d="M95.5338 116.759C93.5883 116.759 91.8337 116.288 90.27 115.345C88.7063 114.383 87.479 113.061 86.5881 111.382C85.6972 109.682 85.2517 107.787 85.2517 105.698C85.2517 103.608 85.6972 101.724 86.5881 100.044C87.479 98.3442 88.7063 97.023 90.27 96.0808C91.8337 95.1181 93.5883 94.6367 95.5338 94.6367C97.4793 94.6367 99.2339 95.1181 100.798 96.0808C102.361 97.023 103.589 98.334 104.48 100.014C105.371 101.693 105.816 103.588 105.816 105.698C105.816 107.808 105.371 109.702 104.48 111.382C103.589 113.061 102.361 114.383 100.798 115.345C99.2339 116.288 97.4793 116.759 95.5338 116.759ZM95.5338 113.256C96.8066 113.256 97.9521 112.939 98.9703 112.304C99.9885 111.648 100.789 110.747 101.37 109.6C101.952 108.432 102.243 107.132 102.243 105.698C102.243 104.264 101.952 102.973 101.37 101.826C100.789 100.659 99.9885 99.7576 98.9703 99.1226C97.9521 98.4671 96.8066 98.1394 95.5338 98.1394C94.2611 98.1394 93.1156 98.4671 92.0974 99.1226C91.0791 99.7576 90.2791 100.659 89.6973 101.826C89.1154 102.973 88.8245 104.264 88.8245 105.698C88.8245 107.132 89.1154 108.432 89.6973 109.6C90.2791 110.747 91.0791 111.648 92.0974 112.304C93.1156 112.939 94.2611 113.256 95.5338 113.256Z" fill="#DE5316"/>
<path d="M120.909 116.451L115.727 108.279L110.6 116.451H106.563L113.655 105.483L106.945 94.944H110.954L115.836 102.595L120.664 94.944H124.509L117.827 105.329L125 116.451H120.909Z" fill="#DE5316"/>
<path d="M3.54557 98.293V104.837H12.764V108.217H3.54557V116.451H0V94.944H13.9368V98.293H3.54557Z" fill="white"/>
<path d="M26.071 116.759C24.1255 116.759 22.3709 116.288 20.8072 115.345C19.2435 114.383 18.0162 113.061 17.1253 111.382C16.2343 109.682 15.7889 107.787 15.7889 105.698C15.7889 103.608 16.2343 101.724 17.1253 100.044C18.0162 98.3442 19.2435 97.023 20.8072 96.0808C22.3709 95.1181 24.1255 94.6367 26.071 94.6367C28.0165 94.6367 29.7711 95.1181 31.3348 96.0808C32.8985 97.023 34.1258 98.334 35.0167 100.014C35.9077 101.693 36.3531 103.588 36.3531 105.698C36.3531 107.808 35.9077 109.702 35.0167 111.382C34.1258 113.061 32.8985 114.383 31.3348 115.345C29.7711 116.288 28.0165 116.759 26.071 116.759ZM26.071 113.256C27.3438 113.256 28.4893 112.939 29.5075 112.304C30.5257 111.648 31.3257 110.747 31.9076 109.6C32.4894 108.432 32.7803 107.132 32.7803 105.698C32.7803 104.264 32.4894 102.973 31.9076 101.826C31.3257 100.659 30.5257 99.7576 29.5075 99.1226C28.4893 98.4671 27.3438 98.1394 26.071 98.1394C24.7982 98.1394 23.6527 98.4671 22.6345 99.1226C21.6163 99.7576 20.8163 100.659 20.2345 101.826C19.6526 102.973 19.3617 104.264 19.3617 105.698C19.3617 107.132 19.6526 108.432 20.2345 109.6C20.8163 110.747 21.6163 111.648 22.6345 112.304C23.6527 112.939 24.7982 113.256 26.071 113.256Z" fill="white"/>
<path d="M51.4465 116.451L46.2645 108.279L41.1371 116.451H37.1006L44.1917 105.483L37.4824 94.944H41.4917L46.3736 102.595L51.2011 94.944H55.0466L48.3646 105.329L55.5376 116.451H51.4465Z" fill="white"/>
<path d="M30.7036 128.245H28.2715V127.252H34.1388V128.245H31.7068V135.243H30.7036V128.245Z" fill="white"/>
<path d="M40.3904 134.25V135.243H35.2425V127.252H40.2485V128.245H36.2559V130.699H39.8128V131.67H36.2559V134.25H40.3904Z" fill="white"/>
<path d="M45.1734 135.334C44.4641 135.334 43.8223 135.159 43.248 134.809C42.6805 134.451 42.2347 133.964 41.9104 133.348C41.5861 132.724 41.424 132.024 41.424 131.247C41.424 130.471 41.5861 129.775 41.9104 129.158C42.2347 128.534 42.6839 128.047 43.2582 127.697C43.8324 127.339 44.4742 127.16 45.1835 127.16C45.7375 127.16 46.2442 127.267 46.7036 127.48C47.163 127.686 47.5548 127.994 47.8791 128.405L47.2204 129.124C46.6867 128.492 46.0212 128.176 45.2241 128.176C44.6971 128.176 44.2208 128.31 43.7952 128.576C43.3696 128.842 43.0352 129.211 42.792 129.683C42.5556 130.148 42.4373 130.669 42.4373 131.247C42.4373 131.826 42.5556 132.351 42.792 132.823C43.0352 133.287 43.3696 133.652 43.7952 133.919C44.2208 134.185 44.6971 134.318 45.2241 134.318C46.0145 134.318 46.6799 133.999 47.2204 133.359L47.8791 134.079C47.5548 134.489 47.1596 134.802 46.6934 135.015C46.2341 135.228 45.7274 135.334 45.1734 135.334Z" fill="white"/>
<path d="M55.4251 127.252V135.243H54.4118V131.681H50.3381V135.243H49.3247V127.252H50.3381V130.688H54.4118V127.252H55.4251Z" fill="white"/>
<path d="M62.3371 135.334C61.8033 135.334 61.2865 135.243 60.7866 135.06C60.2934 134.87 59.905 134.626 59.6212 134.33L59.9962 133.439C60.2664 133.713 60.611 133.938 61.0298 134.113C61.4554 134.28 61.8912 134.364 62.3371 134.364C62.9248 134.364 63.3639 134.254 63.6544 134.033C63.9449 133.805 64.0902 133.504 64.0902 133.131C64.0902 132.857 64.0091 132.636 63.847 132.469C63.6916 132.294 63.4957 132.161 63.2592 132.069C63.0295 131.978 62.7019 131.875 62.2763 131.761C61.7425 131.616 61.3102 131.472 60.9791 131.327C60.6549 131.183 60.3745 130.962 60.1381 130.665C59.9084 130.361 59.7935 129.954 59.7935 129.444C59.7935 129.017 59.8915 128.633 60.0874 128.291C60.2901 127.948 60.5941 127.674 60.9994 127.469C61.4048 127.263 61.9081 127.16 62.5093 127.16C62.9282 127.16 63.3403 127.221 63.7456 127.343C64.151 127.465 64.4989 127.64 64.7894 127.868L64.455 128.781C64.1577 128.568 63.8402 128.409 63.5024 128.302C63.1646 128.188 62.8336 128.131 62.5093 128.131C61.9351 128.131 61.5027 128.249 61.2122 128.485C60.9285 128.721 60.7866 129.025 60.7866 129.398C60.7866 129.672 60.8677 129.896 61.0298 130.071C61.192 130.239 61.3913 130.372 61.6277 130.471C61.8709 130.562 62.1986 130.661 62.6107 130.768C63.1444 130.912 63.5734 131.057 63.8976 131.202C64.2219 131.346 64.4989 131.567 64.7286 131.864C64.965 132.161 65.0833 132.56 65.0833 133.062C65.0833 133.481 64.9819 133.865 64.7793 134.216C64.5766 134.558 64.2692 134.832 63.8571 135.037C63.445 135.235 62.9383 135.334 62.3371 135.334Z" fill="white"/>
<path d="M67.8733 128.245H65.4413V127.252H71.3086V128.245H68.8766V135.243H67.8733V128.245Z" fill="white"/>
<path d="M75.5156 135.334C74.7995 135.334 74.1543 135.159 73.5801 134.809C73.0058 134.451 72.5532 133.961 72.2222 133.336C71.8979 132.712 71.7357 132.016 71.7357 131.247C71.7357 130.479 71.8979 129.782 72.2222 129.158C72.5532 128.534 73.0058 128.047 73.5801 127.697C74.1543 127.339 74.7995 127.16 75.5156 127.16C76.2249 127.16 76.8667 127.339 77.441 127.697C78.0152 128.047 78.4645 128.534 78.7887 129.158C79.113 129.775 79.2752 130.471 79.2752 131.247C79.2752 132.024 79.113 132.724 78.7887 133.348C78.4645 133.964 78.0152 134.451 77.441 134.809C76.8667 135.159 76.2249 135.334 75.5156 135.334ZM75.5156 134.318C76.0358 134.318 76.5019 134.185 76.914 133.919C77.3329 133.652 77.6605 133.287 77.897 132.823C78.1402 132.351 78.2618 131.826 78.2618 131.247C78.2618 130.669 78.1402 130.148 77.897 129.683C77.6605 129.211 77.3329 128.842 76.914 128.576C76.5019 128.31 76.0358 128.176 75.5156 128.176C74.9954 128.176 74.5225 128.31 74.0969 128.576C73.678 128.842 73.347 129.211 73.1038 129.683C72.8673 130.148 72.7491 130.669 72.7491 131.247C72.7491 131.826 72.8673 132.351 73.1038 132.823C73.347 133.287 73.678 133.652 74.0969 133.919C74.5225 134.185 74.9954 134.318 75.5156 134.318Z" fill="white"/>
<path d="M85.5665 135.243L84.0364 132.789C83.8472 132.804 83.6986 132.811 83.5905 132.811H81.8374V135.243H80.824V127.252H83.5905C84.5093 127.252 85.2321 127.499 85.7591 127.994C86.286 128.488 86.5495 129.17 86.5495 130.037C86.5495 130.654 86.4144 131.179 86.1442 131.613C85.8739 132.046 85.4889 132.362 84.9889 132.56L86.6711 135.243H85.5665ZM83.5601 131.841C84.2019 131.841 84.6917 131.685 85.0295 131.373C85.3673 131.061 85.5361 130.616 85.5361 130.037C85.5361 129.459 85.3673 129.017 85.0295 128.713C84.6917 128.401 84.2019 128.245 83.5601 128.245H81.8374V131.841H83.5601Z" fill="white"/>
<path d="M93.3346 134.25V135.243H88.1867V127.252H93.1927V128.245H89.2001V130.699H92.757V131.67H89.2001V134.25H93.3346Z" fill="white"/>
<path d="M60.7339 64.1677C57.7173 66.6457 54.7321 69.0529 52.124 71.4954C52.1554 71.4954 52.1554 71.46 52.1869 71.46C55.2663 69.0883 58.063 66.5749 60.7339 64.1677Z" fill="url(#paint0_linear_249_238)"/>
<path d="M60.7344 64.1681C63.0597 62.2565 65.3536 60.2741 67.5217 58.2209C65.3221 59.9909 63.0911 62.0441 60.7344 64.1681Z" fill="url(#paint1_linear_249_238)"/>
<path d="M82.7615 50.2208C82.5729 50.1146 82.3844 50.0438 82.2273 49.9376C79.085 48.4154 76.2883 49.088 73.5231 50.7518C72.5804 51.3181 71.6692 51.9907 70.7265 52.7695C69.4067 54.0439 67.9612 55.2475 66.5472 56.4157C64.9132 57.9025 63.1849 59.4247 61.2995 60.876C61.2995 60.876 61.2681 60.876 61.2681 60.9114C61.2367 60.9468 61.1739 60.9822 61.1424 61.053C57.2774 64.6638 54.7007 69.4073 53.9151 74.3279C52.5954 82.4344 56.0519 91.0011 66.2015 95.957C57.7487 88.7709 60.4197 77.8324 67.3014 71.6729C67.6156 71.3897 67.9298 71.1419 68.2126 70.8587C69.7523 69.5489 71.2607 68.3807 72.7375 67.248C74.5915 65.832 76.3198 64.5222 77.8281 63.1416C81.1275 60.699 84.5526 58.7875 88.072 58.7167C87.8206 55.2475 85.0554 51.4951 82.7615 50.2208Z" fill="url(#paint2_linear_249_238)"/>
<path d="M68.1818 54.9639C66.6106 56.3445 65.0081 57.6896 63.4369 59.0702C62.6513 59.7428 61.8658 60.4508 61.1116 61.1588C60.3575 61.9022 59.6347 62.6456 58.9748 63.4952C58.2835 64.3094 57.7179 65.1944 57.1209 66.1147C56.5867 67.0351 56.0525 67.9909 55.6126 68.9821C54.7327 70.9645 54.1357 73.1239 53.8843 75.3186C53.79 76.416 53.6958 77.5134 53.79 78.6462C53.79 79.2126 53.8843 79.7436 53.9472 80.31L54.0728 81.1242L54.1357 81.549L54.23 81.9384L54.4185 82.7526L54.6699 83.5313L54.7956 83.9207L54.9527 84.3101L55.2355 85.0889L55.5812 85.8323L55.7697 86.1863C55.8325 86.2925 55.8954 86.4341 55.9582 86.5403L56.3353 87.2483C56.461 87.4961 56.6181 87.7085 56.7752 87.9209C57.9379 89.7263 59.3833 91.2839 60.9545 92.629C62.5571 93.9742 64.2853 95.0716 66.1079 96.0274C64.2539 95.1778 62.4942 94.1158 60.8602 92.8414C59.2262 91.5317 57.7493 89.9741 56.5238 88.1687C54.0414 84.5933 52.973 79.8498 53.4758 75.354C53.7586 73.0885 54.3557 70.8937 55.2669 68.8759C55.7068 67.8493 56.241 66.8935 56.8066 65.9731C57.4037 65.0528 58.0322 64.1678 58.7235 63.3536C59.4148 62.5394 60.1689 61.7606 60.9231 61.0526C61.7086 60.3446 62.4942 59.672 63.3112 58.9994C64.9138 57.548 66.5792 56.2737 68.1818 54.9639Z" fill="url(#paint3_linear_249_238)"/>
<path d="M74.9377 55.2119C77.2316 53.2649 79.7768 52.7339 79.7768 52.7339C78.4257 51.9197 77.1373 51.4595 76.1318 51.1763C79.6826 49.8311 82.4164 49.8311 85.1816 52.3091C86.5014 53.6189 87.7583 56.2739 88.0411 58.6456C83.3591 58.2208 78.3942 60.3802 73.8379 62.5396C76.1632 57.973 79.4312 56.2739 79.4312 56.2739C77.5772 55.4597 74.9377 55.2119 74.9377 55.2119Z" fill="url(#paint4_linear_249_238)"/>
<path d="M56.6807 80.7349C57.0263 86.1511 59.006 91.3902 66.1704 95.9213C57.7176 88.7352 60.3886 77.7968 67.2702 71.6372C71.7637 67.6017 76.4458 64.8051 79.4624 61.4421C73.3977 67.7787 71.261 66.0441 62.1483 72.9116L62.274 70.6814C57.749 75.5312 58.2204 82.7173 58.2204 82.7173L56.6807 80.7349Z" fill="url(#paint5_linear_249_238)"/>
<path d="M74.9377 55.2119C77.2316 53.2649 79.7768 52.7339 79.7768 52.7339C78.4257 51.9197 77.1373 51.4595 76.1318 51.1763C79.6826 49.8311 82.4164 49.8311 85.1816 52.3091C86.5014 53.6189 87.7583 56.2739 88.0411 58.6456C86.2186 55.3181 83.6733 54.2561 81.6622 54.2915C81.6622 54.2915 82.9506 55.2119 83.3591 57.0527C83.3591 57.0527 77.4515 57.5837 73.8379 62.5042C76.1632 57.9377 79.4312 56.2385 79.4312 56.2385C77.5772 55.4597 74.9377 55.2119 74.9377 55.2119Z" fill="url(#paint6_linear_249_238)"/>
<path d="M74.7488 65.4778C73.7433 66.1504 72.6749 66.7168 71.6065 67.2832C70.5381 67.8496 69.4698 68.3806 68.4328 68.9823C67.3958 69.5841 66.3589 70.2213 65.3848 70.8939C64.3792 71.5665 63.4051 72.2745 62.431 73.0179L62.0853 73.2657L62.1168 72.8055L62.2425 70.5753L62.5567 70.7523C61.8654 71.5311 61.2055 72.3453 60.7341 73.2657L60.5456 73.6197L60.3571 73.9737C60.2314 74.2215 60.1057 74.4339 60.0114 74.6817C59.7915 75.1773 59.6029 75.6729 59.4458 76.1685C59.1002 77.195 58.8488 78.257 58.6602 79.3544C58.4717 80.4518 58.3774 81.5492 58.3774 82.6466C58.2832 81.5492 58.346 80.4164 58.4717 79.319C58.5974 78.2216 58.8488 77.1242 59.163 76.0623C59.3201 75.5313 59.5087 75.0357 59.7286 74.5047C59.8229 74.2569 59.9486 74.0091 60.0743 73.7613L60.2628 73.4073L60.4513 73.0533C60.9541 72.0975 61.6454 71.2479 62.3367 70.4337L62.6824 70.0089L62.651 70.5753L62.5567 72.8055L62.2425 72.5931C63.2166 71.8851 64.2221 71.1771 65.2276 70.5045C66.2332 69.8319 67.2701 69.1947 68.3385 68.6283C69.4069 68.062 70.4753 67.531 71.5437 67.0354C72.6121 66.5752 73.6804 66.0442 74.7488 65.4778Z" fill="url(#paint7_linear_249_238)"/>
<path d="M71.0098 15.8828C69.2501 16.2368 67.2391 16.874 64.9766 17.8298C64.7567 15.2456 64.8823 12.2367 65.228 9.1569C69.6901 5.97093 72.9266 5.29834 72.9266 5.29834C72.2668 7.49311 71.3241 11.5641 71.0098 15.8828Z" fill="#EC4900"/>
<path d="M71.0098 15.8828C69.2501 16.2368 67.2391 16.874 64.9766 17.8298C64.7567 15.2456 64.8823 12.2367 65.228 9.1569C69.6901 5.97093 72.9266 5.29834 72.9266 5.29834C72.2668 7.49311 71.3241 11.5641 71.0098 15.8828Z" fill="url(#paint8_linear_249_238)"/>
<path d="M69.4068 15.7769C69.4696 12.8388 69.9724 10.0776 70.3494 8.55542C70.3494 8.55542 68.1813 9.15721 65.2903 11.4936L64.8818 16.9805L69.1554 16.8389" fill="url(#paint9_linear_249_238)"/>
<path d="M60.8914 85.9387C60.5143 85.7971 60.1372 85.6201 59.7916 85.4786C26.1689 70.6815 34.119 30.2198 51.4331 18.1839C55.958 15.0334 57.2778 3.95329 69.3442 0.271729C68.5272 2.25411 67.8045 4.41348 67.2388 6.57286C66.5475 9.19243 66.0762 11.7412 65.9505 14.0068C68.0244 13.5466 69.847 13.2988 71.3867 13.2634C73.9948 13.1572 75.8802 13.582 76.98 14.113C78.2998 14.7856 79.2739 16.8033 81.3164 18.3609C86.3441 19.3875 90.649 19.4229 96.3052 18.6795C96.3052 34.4677 81.882 37.4767 67.5217 47.07C55.1724 55.2827 48.6678 72.2391 60.8914 85.9387Z" fill="url(#paint10_linear_249_238)"/>
<path d="M59.7917 85.4785L56.9008 84.1334C55.9581 83.6378 55.0468 83.1068 54.1041 82.5758C53.1929 82.0094 52.313 81.4076 51.4018 80.8058C50.9618 80.4872 50.5533 80.1332 50.1134 79.8146C49.6735 79.4606 49.2336 79.1774 48.8251 78.788C45.4942 75.956 42.6347 72.4161 40.4665 68.3805C39.4296 66.3274 38.4869 64.2034 37.8584 61.9378C37.4814 60.8404 37.2614 59.6722 37.01 58.5395C36.8843 57.9731 36.8215 57.3713 36.7272 56.8049L36.6015 55.9199C36.5701 55.6367 36.5387 55.3181 36.5072 55.0349L36.3501 53.2649L36.2873 51.4949C36.2873 51.2117 36.2559 50.8931 36.2559 50.6099L36.2873 49.725C36.3187 49.1232 36.3187 48.5568 36.3501 47.955C36.4444 46.7868 36.5072 45.5832 36.6958 44.4504L36.8215 43.5654L36.8843 43.1406L36.9786 42.7158L37.3242 40.9813C38.3612 36.4147 39.9952 31.9898 42.3205 28.0604C43.4832 26.078 44.7715 24.2019 46.2484 22.5381C47.7253 20.8743 49.3278 19.3167 51.119 18.0777C52.8786 16.9095 54.0413 14.9272 55.204 13.0156C56.3666 11.0686 57.5293 9.12162 58.9119 7.35165C60.2945 5.58167 61.9285 4.05948 63.6882 2.8559C64.5994 2.2541 65.5107 1.72311 66.4848 1.29832C67.4589 0.838121 68.433 0.519524 69.4386 0.200928C67.4589 0.87352 65.5107 1.79391 63.7824 3.0329C62.0227 4.27188 60.483 5.82946 59.1318 7.59944C57.7806 9.36942 56.6494 11.3164 55.5182 13.2988C54.9526 14.29 54.3869 15.2458 53.7271 16.2015C53.3814 16.6617 53.0358 17.1219 52.6587 17.5113C52.5644 17.6175 52.4701 17.7237 52.3445 17.7945C52.2502 17.9007 52.1245 18.0069 52.0302 18.0777L51.3703 18.5733L50.1134 19.5645L48.9193 20.6619L48.6051 20.9451L48.3223 21.2283L47.7567 21.8301L47.1911 22.4319C47.0025 22.6443 46.8454 22.8567 46.6569 23.0691C45.2114 24.7328 43.9545 26.5736 42.8233 28.5206C40.5608 32.4146 38.9582 36.7333 37.9527 41.2291L37.6071 42.9282L37.5128 43.353L37.4499 43.7778L37.3242 44.6274C37.1357 45.7602 37.0729 46.9284 36.9786 48.0966C36.9472 48.663 36.9472 49.2648 36.9157 49.8312L36.8843 50.7161C36.8843 50.9993 36.8843 51.2825 36.9157 51.6011L36.9786 53.3357L37.1357 55.0703C37.1671 55.3535 37.1671 55.6367 37.23 55.9199L37.3557 56.7695C37.4499 57.3359 37.5128 57.9023 37.6385 58.4687C37.8899 59.6014 38.1098 60.7342 38.4555 61.7962C39.0525 64.0264 39.9638 66.115 40.9693 68.1327C43.0432 72.1329 45.8399 75.6729 49.1079 78.5402C52.2816 81.4784 55.9581 83.6732 59.7917 85.4785Z" fill="url(#paint11_linear_249_238)"/>
<path d="M60.891 85.9389C28.054 67.7081 44.8653 26.9986 61.8337 25.1932C60.0112 24.025 56.3975 22.5736 56.3975 22.5736C63.342 18.2195 86.438 27.6004 96.2734 18.6443C96.2734 34.4325 81.8502 37.4415 67.4899 47.0348C55.172 55.2829 48.6675 72.2393 60.891 85.9389Z" fill="url(#paint12_linear_249_238)"/>
<path d="M76.5712 38.503C73.209 40.3792 69.7524 42.2908 66.2016 44.6626C58.283 49.9371 52.9725 58.2914 51.9984 66.9289C51.5899 70.7521 51.9984 74.5044 53.1925 78.0444C46.845 72.3451 45.6195 56.5568 51.0557 46.0078C49.1389 47.6361 47.3792 49.5123 45.9023 51.6363C52.784 21.228 84.6784 32.4143 93.5083 21.759C92.3456 29.3345 86.3438 33.0515 76.5712 38.503Z" fill="url(#paint13_linear_249_238)"/>
<path d="M76.5715 38.503C73.2093 40.3792 69.7527 42.2908 66.2019 44.6626C58.2833 49.9371 52.9728 58.2914 51.9987 66.9289C51.5902 70.7521 51.9987 74.5044 53.1928 78.0444C45.3056 63.9908 54.0726 46.0078 63.2796 39.565C61.2685 39.3172 57.4978 40.4146 57.4978 40.4146C66.2334 30.4319 89.7378 33.9365 93.5086 21.759C92.3459 29.3345 86.3441 33.0515 76.5715 38.503Z" fill="url(#paint14_linear_249_238)"/>
<path d="M51.1188 46.008C49.2334 47.7072 47.5366 49.5834 46.0911 51.7427L45.6826 52.3799L45.8397 51.6365C46.1225 50.2913 46.4682 48.9816 46.9081 47.7072C47.348 46.4328 47.8194 45.1584 48.4164 43.9548C49.5791 41.5122 51.056 39.2821 52.8471 37.4059C54.6382 35.4943 56.7121 33.9721 58.8803 32.7332C59.9801 32.1314 61.1113 31.6004 62.2426 31.1048C63.4052 30.6446 64.5679 30.2552 65.7305 29.9012C70.444 28.5206 75.2831 27.848 80.0908 27.1046C82.479 26.7152 84.8671 26.2904 87.1924 25.5824C88.3551 25.2284 89.4863 24.8036 90.5861 24.2019C91.1203 23.9187 91.6545 23.5647 92.1573 23.1753C92.6601 22.7859 93.1314 22.3611 93.5399 21.8655C93.1314 22.3611 92.6915 22.8213 92.1887 23.2461C91.6859 23.6355 91.1832 24.0249 90.649 24.3434C89.5806 24.9806 88.4179 25.4762 87.2553 25.901C84.93 26.7152 82.5104 27.1754 80.1223 27.6356L72.9578 28.91C70.5697 29.3702 68.2129 29.9012 65.8876 30.6092C64.725 30.9632 63.5623 31.3526 62.4625 31.8482C61.3313 32.3084 60.2315 32.804 59.1317 33.4057C56.9635 34.5739 54.9524 36.0961 53.1927 37.9015C51.433 39.7423 49.9562 41.8662 48.7621 44.238C48.165 45.4062 47.6623 46.6452 47.2223 47.9196C46.7824 49.194 46.4368 50.4683 46.0911 51.7781L45.8397 51.6365C47.3795 49.4418 49.1706 47.5656 51.1188 46.008Z" fill="url(#paint15_linear_249_238)"/>
<path d="M60.891 85.9385C58.2201 84.5225 55.6434 82.8233 53.2867 80.8056C50.9299 78.7878 48.7932 76.3806 47.0335 73.6902C46.1536 72.3451 45.3681 70.9291 44.6768 69.4069C44.0169 67.9201 43.4513 66.3271 43.0113 64.7342C42.1315 61.5128 41.7544 58.1498 41.8173 54.7869C41.8801 51.4239 42.4771 48.0963 43.4198 44.9104C44.3625 41.7244 45.7137 38.6801 47.4106 35.9543C49.1074 33.1931 51.1813 30.7151 53.6009 28.7682C55.989 26.7858 58.8171 25.3698 61.8023 25.0866L61.7709 25.299C60.9225 24.7326 60.0426 24.2724 59.1314 23.8476C58.2201 23.4228 57.3088 22.998 56.3975 22.5732C57.3402 22.9272 58.2515 23.3166 59.1628 23.706C60.074 24.1308 60.9853 24.5556 61.8652 25.0866L62.148 25.2636L61.8337 25.299C60.3883 25.5114 58.9428 25.9362 57.623 26.6088C56.2719 27.2814 55.0149 28.131 53.8523 29.1222C51.4956 31.1045 49.5473 33.5825 47.8819 36.3083C44.5825 41.7598 42.6657 48.2379 42.4457 54.8223C42.3514 58.1144 42.6971 61.4066 43.5455 64.5572C43.954 66.1147 44.5196 67.6723 45.1481 69.1237C45.808 70.6105 46.5307 72.0265 47.3791 73.3717C49.076 76.062 51.1499 78.4338 53.4438 80.5224C55.7691 82.6463 58.2829 84.3809 60.891 85.9385Z" fill="url(#paint16_linear_249_238)"/>
<defs>
<linearGradient id="paint0_linear_249_238" x1="64.6318" y1="38.4143" x2="35.7607" y2="119.953" gradientUnits="userSpaceOnUse">
<stop stop-color="#FF6624"/>
<stop offset="0.2454" stop-color="#EE5C1D"/>
<stop offset="0.7269" stop-color="#C3440B"/>
<stop offset="1" stop-color="#A83400"/>
</linearGradient>
<linearGradient id="paint1_linear_249_238" x1="95.7906" y1="61.0097" x2="18.0879" y2="61.3866" gradientUnits="userSpaceOnUse">
<stop stop-color="#FF6624"/>
<stop offset="0.2454" stop-color="#EE5C1D"/>
<stop offset="0.7269" stop-color="#C3440B"/>
<stop offset="1" stop-color="#A83400"/>
</linearGradient>
<linearGradient id="paint2_linear_249_238" x1="74.3407" y1="49.1988" x2="64.8027" y2="87.7904" gradientUnits="userSpaceOnUse">
<stop stop-color="#FF6624"/>
<stop offset="0.2454" stop-color="#EE5C1D"/>
<stop offset="0.7269" stop-color="#C3440B"/>
<stop offset="1" stop-color="#A83400"/>
</linearGradient>
<linearGradient id="paint3_linear_249_238" x1="68.2472" y1="54.8455" x2="55.0117" y2="92.2302" gradientUnits="userSpaceOnUse">
<stop stop-color="#A83400"/>
<stop offset="0.2731" stop-color="#C3440B"/>
<stop offset="0.7546" stop-color="#EE5C1D"/>
<stop offset="1" stop-color="#FF6624"/>
</linearGradient>
<linearGradient id="paint4_linear_249_238" x1="89.6822" y1="59.6587" x2="68.4836" y2="55.208" gradientUnits="userSpaceOnUse">
<stop stop-color="white"/>
<stop offset="0.2101" stop-color="#EEEEEE"/>
<stop offset="0.6219" stop-color="#C3C3C3"/>
<stop offset="1" stop-color="#969696"/>
</linearGradient>
<linearGradient id="paint5_linear_249_238" x1="73.3022" y1="45.5678" x2="62.1726" y2="88.3548" gradientUnits="userSpaceOnUse">
<stop stop-color="#FF6624"/>
<stop offset="0.1843" stop-color="#EE5E1F"/>
<stop offset="0.5478" stop-color="#C34712"/>
<stop offset="1" stop-color="#852800"/>
</linearGradient>
<linearGradient id="paint6_linear_249_238" x1="87.6022" y1="63.2361" x2="75.0888" y2="56.1024" gradientUnits="userSpaceOnUse">
<stop stop-color="white"/>
<stop offset="0.1567" stop-color="#EEEEEE"/>
<stop offset="0.4656" stop-color="#C3C3C3"/>
<stop offset="0.8935" stop-color="#7D7D7D"/>
<stop offset="1" stop-color="#6B6B6B"/>
</linearGradient>
<linearGradient id="paint7_linear_249_238" x1="69.0404" y1="63.2817" x2="61.7381" y2="83.9078" gradientUnits="userSpaceOnUse">
<stop stop-color="#FF6624"/>
<stop offset="0.2454" stop-color="#EE5C1D"/>
<stop offset="0.7269" stop-color="#C3440B"/>
<stop offset="1" stop-color="#A83400"/>
</linearGradient>
<linearGradient id="paint8_linear_249_238" x1="72.2648" y1="-0.886025" x2="65.8601" y2="15.4819" gradientUnits="userSpaceOnUse">
<stop stop-color="#FF6624"/>
<stop offset="0.1843" stop-color="#EE5E1F"/>
<stop offset="0.5478" stop-color="#C34712"/>
<stop offset="1" stop-color="#852800"/>
</linearGradient>
<linearGradient id="paint9_linear_249_238" x1="69.6387" y1="7.54517" x2="66.8606" y2="13.5403" gradientUnits="userSpaceOnUse">
<stop stop-color="white"/>
<stop offset="0.2101" stop-color="#EEEEEE"/>
<stop offset="0.6219" stop-color="#C3C3C3"/>
<stop offset="1" stop-color="#969696"/>
</linearGradient>
<linearGradient id="paint10_linear_249_238" x1="73.8182" y1="1.5933" x2="49.8382" y2="82.6869" gradientUnits="userSpaceOnUse">
<stop stop-color="#FF6624"/>
<stop offset="0.2454" stop-color="#EE5C1D"/>
<stop offset="0.7269" stop-color="#C3440B"/>
<stop offset="1" stop-color="#A83400"/>
</linearGradient>
<linearGradient id="paint11_linear_249_238" x1="63.6622" y1="-1.74226" x2="39.5287" y2="79.8705" gradientUnits="userSpaceOnUse">
<stop stop-color="#A83400"/>
<stop offset="0.2731" stop-color="#C3440B"/>
<stop offset="0.7546" stop-color="#EE5C1D"/>
<stop offset="1" stop-color="#FF6624"/>
</linearGradient>
<linearGradient id="paint12_linear_249_238" x1="85.3404" y1="-16.2347" x2="52.1654" y2="68.5475" gradientUnits="userSpaceOnUse">
<stop stop-color="#FF6624"/>
<stop offset="0.1843" stop-color="#EE5E1F"/>
<stop offset="0.5478" stop-color="#C34712"/>
<stop offset="1" stop-color="#852800"/>
</linearGradient>
<linearGradient id="paint13_linear_249_238" x1="83.2517" y1="11.4162" x2="37.9971" y2="76.8235" gradientUnits="userSpaceOnUse">
<stop stop-color="white"/>
<stop offset="0.2101" stop-color="#EEEEEE"/>
<stop offset="0.6219" stop-color="#C3C3C3"/>
<stop offset="1" stop-color="#969696"/>
</linearGradient>
<linearGradient id="paint14_linear_249_238" x1="90.2403" y1="7.72564" x2="47.19" y2="64.1463" gradientUnits="userSpaceOnUse">
<stop stop-color="white"/>
<stop offset="0.1567" stop-color="#EEEEEE"/>
<stop offset="0.4656" stop-color="#C3C3C3"/>
<stop offset="0.8935" stop-color="#7D7D7D"/>
<stop offset="1" stop-color="#6B6B6B"/>
</linearGradient>
<linearGradient id="paint15_linear_249_238" x1="74.5257" y1="15.96" x2="62.0317" y2="58.2112" gradientUnits="userSpaceOnUse">
<stop stop-color="#FF6624"/>
<stop offset="0.2454" stop-color="#EE5C1D"/>
<stop offset="0.7269" stop-color="#C3440B"/>
<stop offset="1" stop-color="#A83400"/>
</linearGradient>
<linearGradient id="paint16_linear_249_238" x1="61.8189" y1="23.8177" x2="44.7464" y2="81.5519" gradientUnits="userSpaceOnUse">
<stop stop-color="#FF6624"/>
<stop offset="0.2454" stop-color="#EE5C1D"/>
<stop offset="0.7269" stop-color="#C3440B"/>
<stop offset="1" stop-color="#A83400"/>
</linearGradient>
</defs>
</svg>
