<svg width="125" height="136" viewBox="0 0 125 136" fill="none" xmlns="http://www.w3.org/2000/svg">
<path d="M79.3945 105.268C80.4491 105.657 81.2855 106.312 81.9037 107.234C82.5219 108.135 82.831 109.262 82.831 110.614C82.831 112.478 82.1946 113.922 80.9218 114.946C79.6491 115.95 77.7944 116.451 75.358 116.451H65.8668V94.944H74.8125C77.0672 94.944 78.8036 95.4458 80.0218 96.4495C81.24 97.4327 81.8491 98.7948 81.8491 100.536C81.8491 101.601 81.6309 102.543 81.1946 103.363C80.7582 104.182 80.1582 104.817 79.3945 105.268ZM69.4124 98.0779V104.008H74.4307C75.6671 104.008 76.6126 103.762 77.2672 103.27C77.9399 102.758 78.2763 102.021 78.2763 101.058C78.2763 100.075 77.9399 99.3376 77.2672 98.846C76.6126 98.334 75.6671 98.0779 74.4307 98.0779H69.4124ZM75.1398 113.318C77.8854 113.318 79.2581 112.283 79.2581 110.214C79.2581 108.145 77.8854 107.111 75.1398 107.111H69.4124V113.318H75.1398Z" fill="#DE5316"/>
<path d="M95.5334 116.759C93.5879 116.759 91.8333 116.288 90.2696 115.345C88.7059 114.383 87.4786 113.061 86.5877 111.382C85.6968 109.682 85.2513 107.787 85.2513 105.698C85.2513 103.608 85.6968 101.724 86.5877 100.044C87.4786 98.3442 88.7059 97.023 90.2696 96.0808C91.8333 95.1181 93.5879 94.6367 95.5334 94.6367C97.4789 94.6367 99.2336 95.1181 100.797 96.0808C102.361 97.023 103.588 98.334 104.479 100.014C105.37 101.693 105.816 103.588 105.816 105.698C105.816 107.808 105.37 109.702 104.479 111.382C103.588 113.061 102.361 114.383 100.797 115.345C99.2336 116.288 97.4789 116.759 95.5334 116.759ZM95.5334 113.256C96.8062 113.256 97.9517 112.939 98.9699 112.304C99.9881 111.648 100.788 110.747 101.37 109.6C101.952 108.432 102.243 107.132 102.243 105.698C102.243 104.264 101.952 102.973 101.37 101.826C100.788 100.659 99.9881 99.7576 98.9699 99.1226C97.9517 98.4671 96.8062 98.1394 95.5334 98.1394C94.2607 98.1394 93.1152 98.4671 92.097 99.1226C91.0787 99.7576 90.2787 100.659 89.6969 101.826C89.115 102.973 88.8241 104.264 88.8241 105.698C88.8241 107.132 89.115 108.432 89.6969 109.6C90.2787 110.747 91.0787 111.648 92.097 112.304C93.1152 112.939 94.2607 113.256 95.5334 113.256Z" fill="#DE5316"/>
<path d="M120.909 116.451L115.727 108.279L110.6 116.451H106.563L113.654 105.483L106.945 94.944H110.954L115.836 102.595L120.663 94.944H124.509L117.827 105.329L125 116.451H120.909Z" fill="#DE5316"/>
<path d="M3.54557 98.293V104.837H12.764V108.217H3.54557V116.451H0V94.944H13.9368V98.293H3.54557Z" fill="white"/>
<path d="M26.071 116.759C24.1255 116.759 22.3709 116.288 20.8072 115.345C19.2435 114.383 18.0162 113.061 17.1253 111.382C16.2343 109.682 15.7889 107.787 15.7889 105.698C15.7889 103.608 16.2343 101.724 17.1253 100.044C18.0162 98.3442 19.2435 97.023 20.8072 96.0808C22.3709 95.1181 24.1255 94.6367 26.071 94.6367C28.0165 94.6367 29.7711 95.1181 31.3348 96.0808C32.8985 97.023 34.1258 98.334 35.0167 100.014C35.9077 101.693 36.3531 103.588 36.3531 105.698C36.3531 107.808 35.9077 109.702 35.0167 111.382C34.1258 113.061 32.8985 114.383 31.3348 115.345C29.7711 116.288 28.0165 116.759 26.071 116.759ZM26.071 113.256C27.3438 113.256 28.4893 112.939 29.5075 112.304C30.5257 111.648 31.3257 110.747 31.9076 109.6C32.4894 108.432 32.7803 107.132 32.7803 105.698C32.7803 104.264 32.4894 102.973 31.9076 101.826C31.3257 100.659 30.5257 99.7576 29.5075 99.1226C28.4893 98.4671 27.3438 98.1394 26.071 98.1394C24.7982 98.1394 23.6527 98.4671 22.6345 99.1226C21.6163 99.7576 20.8163 100.659 20.2345 101.826C19.6526 102.973 19.3617 104.264 19.3617 105.698C19.3617 107.132 19.6526 108.432 20.2345 109.6C20.8163 110.747 21.6163 111.648 22.6345 112.304C23.6527 112.939 24.7982 113.256 26.071 113.256Z" fill="white"/>
<path d="M51.4465 116.451L46.2645 108.279L41.1371 116.451H37.1006L44.1917 105.483L37.4824 94.944H41.4917L46.3736 102.595L51.2011 94.944H55.0466L48.3646 105.329L55.5376 116.451H51.4465Z" fill="white"/>
<path d="M30.7035 128.245H28.2714V127.252H34.1388V128.245H31.7067V135.243H30.7035V128.245Z" fill="white"/>
<path d="M40.3903 134.25V135.243H35.2424V127.252H40.2485V128.245H36.2558V130.699H39.8127V131.67H36.2558V134.25H40.3903Z" fill="white"/>
<path d="M45.1733 135.334C44.464 135.334 43.8222 135.159 43.2479 134.809C42.6804 134.451 42.2346 133.964 41.9103 133.348C41.586 132.724 41.4239 132.024 41.4239 131.247C41.4239 130.471 41.586 129.775 41.9103 129.158C42.2346 128.534 42.6838 128.047 43.2581 127.697C43.8323 127.339 44.4741 127.16 45.1834 127.16C45.7374 127.16 46.2441 127.267 46.7035 127.48C47.1629 127.686 47.5547 127.994 47.879 128.405L47.2203 129.124C46.6866 128.492 46.0212 128.176 45.224 128.176C44.697 128.176 44.2208 128.31 43.7951 128.576C43.3695 128.842 43.0351 129.211 42.7919 129.683C42.5555 130.148 42.4372 130.669 42.4372 131.247C42.4372 131.826 42.5555 132.351 42.7919 132.823C43.0351 133.287 43.3695 133.652 43.7951 133.919C44.2208 134.185 44.697 134.318 45.224 134.318C46.0144 134.318 46.6798 133.999 47.2203 133.359L47.879 134.079C47.5547 134.489 47.1595 134.802 46.6934 135.015C46.234 135.228 45.7273 135.334 45.1733 135.334Z" fill="white"/>
<path d="M55.425 127.252V135.243H54.4117V131.681H50.338V135.243H49.3246V127.252H50.338V130.688H54.4117V127.252H55.425Z" fill="white"/>
<path d="M62.337 135.334C61.8033 135.334 61.2864 135.243 60.7865 135.06C60.2934 134.87 59.9049 134.626 59.6212 134.33L59.9961 133.439C60.2663 133.713 60.6109 133.938 61.0297 134.113C61.4553 134.28 61.8911 134.364 62.337 134.364C62.9247 134.364 63.3638 134.254 63.6543 134.033C63.9448 133.805 64.0901 133.504 64.0901 133.131C64.0901 132.857 64.009 132.636 63.8469 132.469C63.6915 132.294 63.4956 132.161 63.2591 132.069C63.0294 131.978 62.7018 131.875 62.2762 131.761C61.7425 131.616 61.3101 131.472 60.9791 131.327C60.6548 131.183 60.3744 130.962 60.138 130.665C59.9083 130.361 59.7934 129.954 59.7934 129.444C59.7934 129.017 59.8914 128.633 60.0873 128.291C60.29 127.948 60.594 127.674 60.9993 127.469C61.4047 127.263 61.908 127.16 62.5092 127.16C62.9281 127.16 63.3402 127.221 63.7455 127.343C64.1509 127.465 64.4988 127.64 64.7893 127.868L64.4549 128.781C64.1576 128.568 63.8401 128.409 63.5023 128.302C63.1645 128.188 62.8335 128.131 62.5092 128.131C61.935 128.131 61.5026 128.249 61.2121 128.485C60.9284 128.721 60.7865 129.025 60.7865 129.398C60.7865 129.672 60.8676 129.896 61.0297 130.071C61.1919 130.239 61.3912 130.372 61.6276 130.471C61.8708 130.562 62.1985 130.661 62.6106 130.768C63.1443 130.912 63.5733 131.057 63.8975 131.202C64.2218 131.346 64.4988 131.567 64.7285 131.864C64.9649 132.161 65.0832 132.56 65.0832 133.062C65.0832 133.481 64.9818 133.865 64.7792 134.216C64.5765 134.558 64.2691 134.832 63.857 135.037C63.4449 135.235 62.9382 135.334 62.337 135.334Z" fill="white"/>
<path d="M67.8732 128.245H65.4412V127.252H71.3085V128.245H68.8765V135.243H67.8732V128.245Z" fill="white"/>
<path d="M75.5155 135.334C74.7994 135.334 74.1542 135.159 73.58 134.809C73.0057 134.451 72.5531 133.961 72.2221 133.336C71.8978 132.712 71.7357 132.016 71.7357 131.247C71.7357 130.479 71.8978 129.782 72.2221 129.158C72.5531 128.534 73.0057 128.047 73.58 127.697C74.1542 127.339 74.7994 127.16 75.5155 127.16C76.2248 127.16 76.8666 127.339 77.4409 127.697C78.0151 128.047 78.4644 128.534 78.7886 129.158C79.1129 129.775 79.2751 130.471 79.2751 131.247C79.2751 132.024 79.1129 132.724 78.7886 133.348C78.4644 133.964 78.0151 134.451 77.4409 134.809C76.8666 135.159 76.2248 135.334 75.5155 135.334ZM75.5155 134.318C76.0357 134.318 76.5018 134.185 76.9139 133.919C77.3328 133.652 77.6604 133.287 77.8969 132.823C78.1401 132.351 78.2617 131.826 78.2617 131.247C78.2617 130.669 78.1401 130.148 77.8969 129.683C77.6604 129.211 77.3328 128.842 76.9139 128.576C76.5018 128.31 76.0357 128.176 75.5155 128.176C74.9953 128.176 74.5224 128.31 74.0968 128.576C73.6779 128.842 73.3469 129.211 73.1037 129.683C72.8672 130.148 72.749 130.669 72.749 131.247C72.749 131.826 72.8672 132.351 73.1037 132.823C73.3469 133.287 73.6779 133.652 74.0968 133.919C74.5224 134.185 74.9953 134.318 75.5155 134.318Z" fill="white"/>
<path d="M85.5665 135.243L84.0363 132.789C83.8471 132.804 83.6985 132.811 83.5904 132.811H81.8373V135.243H80.8239V127.252H83.5904C84.5092 127.252 85.232 127.499 85.759 127.994C86.2859 128.488 86.5494 129.17 86.5494 130.037C86.5494 130.654 86.4143 131.179 86.1441 131.613C85.8738 132.046 85.4888 132.362 84.9888 132.56L86.671 135.243H85.5665ZM83.56 131.841C84.2018 131.841 84.6916 131.685 85.0294 131.373C85.3672 131.061 85.5361 130.616 85.5361 130.037C85.5361 129.459 85.3672 129.017 85.0294 128.713C84.6916 128.401 84.2018 128.245 83.56 128.245H81.8373V131.841H83.56Z" fill="white"/>
<path d="M93.3345 134.25V135.243H88.1866V127.252H93.1926V128.245H89.2V130.699H92.7569V131.67H89.2V134.25H93.3345Z" fill="white"/>
<path d="M60.7348 64.1677C57.7182 66.6457 54.7331 69.0529 52.1249 71.4954C52.1564 71.4954 52.1564 71.46 52.1878 71.46C55.2672 69.0883 58.0639 66.5749 60.7348 64.1677Z" fill="url(#paint0_linear_225_873)"/>
<path d="M60.7348 64.1681C63.0602 62.2565 65.354 60.2741 67.5222 58.2209C65.3226 59.9909 63.0916 62.0441 60.7348 64.1681Z" fill="url(#paint1_linear_225_873)"/>
<path d="M82.7624 50.2208C82.5739 50.1146 82.3853 50.0438 82.2282 49.9376C79.0859 48.4154 76.2893 49.088 73.524 50.7518C72.5813 51.3181 71.6701 51.9907 70.7274 52.7695C69.4076 54.0439 67.9622 55.2475 66.5481 56.4157C64.9141 57.9025 63.1858 59.4247 61.3005 60.876C61.3005 60.876 61.269 60.876 61.269 60.9114C61.2376 60.9468 61.1748 60.9822 61.1433 61.053C57.2783 64.6638 54.7016 69.4073 53.916 74.3279C52.5963 82.4344 56.0528 91.0011 66.2025 95.957C57.7497 88.7709 60.4206 77.8324 67.3023 71.6729C67.6165 71.3897 67.9307 71.1419 68.2135 70.8587C69.7533 69.5489 71.2616 68.3807 72.7385 67.248C74.5924 65.832 76.3207 64.5222 77.829 63.1416C81.1284 60.699 84.5535 58.7875 88.0729 58.7167C87.8215 55.2475 85.0563 51.4951 82.7624 50.2208Z" fill="url(#paint2_linear_225_873)"/>
<path d="M68.1821 54.9639C66.611 56.3445 65.0084 57.6896 63.4372 59.0702C62.6517 59.7428 61.8661 60.4508 61.1119 61.1588C60.3578 61.9022 59.635 62.6456 58.9752 63.4952C58.2839 64.3094 57.7182 65.1944 57.1212 66.1147C56.587 67.0351 56.0528 67.9909 55.6129 68.9821C54.733 70.9645 54.136 73.1239 53.8846 75.3186C53.7904 76.416 53.6961 77.5134 53.7904 78.6462C53.7904 79.2126 53.8846 79.7436 53.9475 80.31L54.0732 81.1242L54.136 81.549L54.2303 81.9384L54.4188 82.7526L54.6702 83.5313L54.7959 83.9207L54.953 84.3101L55.2358 85.0889L55.5815 85.8323L55.77 86.1863C55.8329 86.2925 55.8957 86.4341 55.9585 86.5403L56.3356 87.2483C56.4613 87.4961 56.6184 87.7085 56.7755 87.9209C57.9382 89.7263 59.3837 91.2839 60.9548 92.629C62.5574 93.9742 64.2857 95.0716 66.1082 96.0274C64.2542 95.1778 62.4945 94.1158 60.8605 92.8414C59.2265 91.5317 57.7497 89.9741 56.5242 88.1687C54.0417 84.5933 52.9734 79.8498 53.4761 75.354C53.7589 73.0885 54.356 70.8937 55.2672 68.8759C55.7072 67.8493 56.2414 66.8935 56.807 65.9731C57.404 65.0528 58.0325 64.1678 58.7238 63.3536C59.4151 62.5394 60.1692 61.7606 60.9234 61.0526C61.709 60.3446 62.4945 59.672 63.3115 58.9994C64.9141 57.548 66.5795 56.2737 68.1821 54.9639Z" fill="url(#paint3_linear_225_873)"/>
<path d="M74.9381 55.2119C77.2319 53.2649 79.7772 52.7339 79.7772 52.7339C78.426 51.9197 77.1377 51.4595 76.1321 51.1763C79.6829 49.8311 82.4167 49.8311 85.182 52.3091C86.5017 53.6189 87.7587 56.2739 88.0415 58.6456C83.3594 58.2208 78.3946 60.3802 73.8383 62.5396C76.1636 57.973 79.4316 56.2739 79.4316 56.2739C77.5776 55.4597 74.9381 55.2119 74.9381 55.2119Z" fill="url(#paint4_linear_225_873)"/>
<path d="M56.6813 80.7349C57.0269 86.1511 59.0066 91.3902 66.171 95.9213C57.7182 88.7352 60.3892 77.7968 67.2708 71.6372C71.7643 67.6017 76.4464 64.8051 79.463 61.4421C73.3983 67.7787 71.2616 66.0441 62.1489 72.9116L62.2746 70.6814C57.7497 75.5312 58.221 82.7173 58.221 82.7173L56.6813 80.7349Z" fill="url(#paint5_linear_225_873)"/>
<path d="M74.9381 55.2119C77.2319 53.2649 79.7772 52.7339 79.7772 52.7339C78.426 51.9197 77.1377 51.4595 76.1321 51.1763C79.6829 49.8311 82.4167 49.8311 85.182 52.3091C86.5017 53.6189 87.7587 56.2739 88.0415 58.6456C86.2189 55.3181 83.6737 54.2561 81.6626 54.2915C81.6626 54.2915 82.9509 55.2119 83.3594 57.0527C83.3594 57.0527 77.4519 57.5837 73.8383 62.5042C76.1636 57.9377 79.4316 56.2385 79.4316 56.2385C77.5776 55.4597 74.9381 55.2119 74.9381 55.2119Z" fill="url(#paint6_linear_225_873)"/>
<path d="M74.7495 65.4778C73.744 66.1504 72.6756 66.7168 71.6072 67.2832C70.5388 67.8496 69.4705 68.3806 68.4335 68.9823C67.3965 69.5841 66.3596 70.2213 65.3855 70.8939C64.3799 71.5665 63.4058 72.2745 62.4317 73.0179L62.086 73.2657L62.1175 72.8055L62.2432 70.5753L62.5574 70.7523C61.8661 71.5311 61.2062 72.3453 60.7349 73.2657L60.5463 73.6197L60.3578 73.9737C60.2321 74.2215 60.1064 74.4339 60.0121 74.6817C59.7922 75.1773 59.6036 75.6729 59.4465 76.1685C59.1009 77.195 58.8495 78.257 58.6609 79.3544C58.4724 80.4518 58.3781 81.5492 58.3781 82.6466C58.2839 81.5492 58.3467 80.4164 58.4724 79.319C58.5981 78.2216 58.8495 77.1242 59.1637 76.0623C59.3208 75.5313 59.5094 75.0357 59.7293 74.5047C59.8236 74.2569 59.9493 74.0091 60.075 73.7613L60.2635 73.4073L60.452 73.0533C60.9548 72.0975 61.6461 71.2479 62.3374 70.4337L62.6831 70.0089L62.6517 70.5753L62.5574 72.8055L62.2432 72.5931C63.2173 71.8851 64.2228 71.1771 65.2283 70.5045C66.2339 69.8319 67.2708 69.1947 68.3392 68.6283C69.4076 68.062 70.476 67.531 71.5444 67.0354C72.6128 66.5752 73.6811 66.0442 74.7495 65.4778Z" fill="url(#paint7_linear_225_873)"/>
<path d="M71.0102 15.8828C69.2505 16.2368 67.2394 16.874 64.977 17.8298C64.757 15.2456 64.8827 12.2367 65.2283 9.1569C69.6904 5.97093 72.927 5.29834 72.927 5.29834C72.2671 7.49311 71.3244 11.5641 71.0102 15.8828Z" fill="#EC4900"/>
<path d="M71.0102 15.8828C69.2505 16.2368 67.2394 16.874 64.977 17.8298C64.757 15.2456 64.8827 12.2367 65.2283 9.1569C69.6904 5.97093 72.927 5.29834 72.927 5.29834C72.2671 7.49311 71.3244 11.5641 71.0102 15.8828Z" fill="url(#paint8_linear_225_873)"/>
<path d="M69.4076 15.7769C69.4705 12.8388 69.9732 10.0776 70.3503 8.55542C70.3503 8.55542 68.1821 9.15721 65.2912 11.4936L64.8827 16.9805L69.1562 16.8389" fill="url(#paint9_linear_225_873)"/>
<path d="M60.892 85.9387C60.5149 85.7971 60.1378 85.6201 59.7922 85.4786C26.1695 70.6815 34.1195 30.2198 51.4336 18.1839C55.9585 15.0334 57.2783 3.95329 69.3448 0.271729C68.5278 2.25411 67.805 4.41348 67.2394 6.57286C66.5481 9.19243 66.0768 11.7412 65.9511 14.0068C68.025 13.5466 69.8475 13.2988 71.3873 13.2634C73.9954 13.1572 75.8807 13.582 76.9806 14.113C78.3003 14.7856 79.2744 16.8033 81.3169 18.3609C86.3446 19.3875 90.6496 19.4229 96.3057 18.6795C96.3057 34.4677 81.8825 37.4767 67.5222 47.07C55.173 55.2827 48.6684 72.2391 60.892 85.9387Z" fill="url(#paint10_linear_225_873)"/>
<path d="M59.7922 85.4785L56.9013 84.1334C55.9586 83.6378 55.0473 83.1068 54.1046 82.5758C53.1933 82.0094 52.3135 81.4076 51.4022 80.8058C50.9623 80.4872 50.5538 80.1332 50.1139 79.8146C49.674 79.4606 49.234 79.1774 48.8255 78.788C45.4947 75.956 42.6352 72.4161 40.467 68.3805C39.43 66.3274 38.4873 64.2034 37.8589 61.9378C37.4818 60.8404 37.2619 59.6722 37.0105 58.5395C36.8848 57.9731 36.8219 57.3713 36.7277 56.8049L36.602 55.9199C36.5705 55.6367 36.5391 55.3181 36.5077 55.0349L36.3506 53.2649L36.2877 51.4949C36.2877 51.2117 36.2563 50.8931 36.2563 50.6099L36.2877 49.725C36.3192 49.1232 36.3192 48.5568 36.3506 47.955C36.4449 46.7868 36.5077 45.5832 36.6962 44.4504L36.8219 43.5654L36.8848 43.1406L36.979 42.7158L37.3247 40.9813C38.3617 36.4147 39.9957 31.9898 42.321 28.0604C43.4836 26.078 44.772 24.2019 46.2488 22.5381C47.7257 20.8743 49.3283 19.3167 51.1194 18.0777C52.8791 16.9095 54.0418 14.9272 55.2044 13.0156C56.3671 11.0686 57.5297 9.12163 58.9123 7.35165C60.2949 5.58167 61.9289 4.05948 63.6886 2.8559C64.5999 2.2541 65.5112 1.72311 66.4853 1.29832C67.4594 0.838121 68.4335 0.519524 69.439 0.200928C67.4594 0.87352 65.5112 1.79391 63.7829 3.0329C62.0232 4.27188 60.4835 5.82946 59.1323 7.59944C57.7811 9.36942 56.6499 11.3164 55.5186 13.2988C54.953 14.29 54.3874 15.2458 53.7275 16.2015C53.3819 16.6617 53.0362 17.1219 52.6591 17.5113C52.5649 17.6175 52.4706 17.7237 52.3449 17.7945C52.2506 17.9007 52.125 18.0069 52.0307 18.0777L51.3708 18.5733L50.1139 19.5645L48.9198 20.6619L48.6056 20.9451L48.3228 21.2283L47.7571 21.8301L47.1915 22.4319C47.003 22.6443 46.8459 22.8567 46.6573 23.0691C45.2119 24.7328 43.955 26.5736 42.8237 28.5206C40.5613 32.4146 38.9587 36.7333 37.9532 41.2291L37.6075 42.9282L37.5132 43.353L37.4504 43.7778L37.3247 44.6274C37.1362 45.7602 37.0733 46.9284 36.979 48.0966C36.9476 48.663 36.9476 49.2648 36.9162 49.8312L36.8848 50.7161C36.8848 50.9993 36.8848 51.2825 36.9162 51.6011L36.979 53.3357L37.1362 55.0703C37.1676 55.3535 37.1676 55.6367 37.2304 55.9199L37.3561 56.7695C37.4504 57.3359 37.5132 57.9023 37.6389 58.4687C37.8903 59.6014 38.1103 60.7342 38.4559 61.7962C39.053 64.0264 39.9642 66.115 40.9698 68.1327C43.0437 72.1329 45.8403 75.6729 49.1083 78.5402C52.2821 81.4784 55.9586 83.6732 59.7922 85.4785Z" fill="url(#paint11_linear_225_873)"/>
<path d="M60.892 85.9389C28.0549 67.7081 44.8662 26.9986 61.8346 25.1932C60.0121 24.025 56.3985 22.5736 56.3985 22.5736C63.343 18.2195 86.4389 27.6004 96.2743 18.6443C96.2743 34.4325 81.8511 37.4415 67.4908 47.0348C55.173 55.2829 48.6684 72.2393 60.892 85.9389Z" fill="url(#paint12_linear_225_873)"/>
<path d="M76.5721 38.503C73.2098 40.3792 69.7533 42.2908 66.2025 44.6626C58.2838 49.9371 52.9734 58.2914 51.9992 66.9289C51.5907 70.7521 51.9992 74.5044 53.1933 78.0444C46.8459 72.3451 45.6204 56.5568 51.0565 46.0078C49.1397 47.6361 47.3801 49.5123 45.9032 51.6363C52.7848 21.228 84.6792 32.4143 93.5091 21.759C92.3464 29.3345 86.3446 33.0515 76.5721 38.503Z" fill="url(#paint13_linear_225_873)"/>
<path d="M76.5721 38.503C73.2098 40.3792 69.7533 42.2908 66.2025 44.6626C58.2838 49.9371 52.9734 58.2914 51.9992 66.9289C51.5907 70.7521 51.9992 74.5044 53.1933 78.0444C45.3061 63.9908 54.0732 46.0078 63.2801 39.565C61.269 39.3172 57.4983 40.4146 57.4983 40.4146C66.2339 30.4319 89.7383 33.9365 93.5091 21.759C92.3464 29.3345 86.3446 33.0515 76.5721 38.503Z" fill="url(#paint14_linear_225_873)"/>
<path d="M51.1194 46.008C49.234 47.7072 47.5372 49.5834 46.0917 51.7427L45.6832 52.3799L45.8403 51.6365C46.1231 50.2913 46.4688 48.9816 46.9087 47.7072C47.3486 46.4328 47.82 45.1584 48.417 43.9548C49.5797 41.5122 51.0566 39.2821 52.8477 37.4059C54.6388 35.4943 56.7127 33.9721 58.8809 32.7332C59.9807 32.1314 61.1119 31.6004 62.2432 31.1048C63.4058 30.6446 64.5685 30.2552 65.7311 29.9012C70.4446 28.5206 75.2837 27.848 80.0914 27.1046C82.4796 26.7152 84.8677 26.2904 87.193 25.5824C88.3557 25.2284 89.4869 24.8036 90.5867 24.2019C91.1209 23.9187 91.6551 23.5647 92.1579 23.1753C92.6607 22.7859 93.132 22.3611 93.5405 21.8655C93.132 22.3611 92.6921 22.8213 92.1893 23.2461C91.6865 23.6355 91.1838 24.0249 90.6496 24.3434C89.5812 24.9806 88.4185 25.4762 87.2559 25.901C84.9306 26.7152 82.511 27.1754 80.1229 27.6356L72.9584 28.91C70.5703 29.3702 68.2135 29.9012 65.8882 30.6092C64.7256 30.9632 63.5629 31.3526 62.4631 31.8482C61.3319 32.3084 60.2321 32.804 59.1323 33.4057C56.9641 34.5739 54.953 36.0961 53.1933 37.9015C51.4336 39.7423 49.9567 41.8662 48.7627 44.238C48.1656 45.4062 47.6629 46.6452 47.2229 47.9196C46.783 49.194 46.4374 50.4683 46.0917 51.7781L45.8403 51.6365C47.3801 49.4418 49.1712 47.5656 51.1194 46.008Z" fill="url(#paint15_linear_225_873)"/>
<path d="M60.892 85.9385C58.221 84.5225 55.6443 82.8233 53.2876 80.8056C50.9309 78.7878 48.7941 76.3806 47.0344 73.6902C46.1546 72.3451 45.369 70.9291 44.6777 69.4069C44.0178 67.9201 43.4522 66.3271 43.0122 64.7342C42.1324 61.5128 41.7553 58.1498 41.8182 54.7869C41.881 51.4239 42.4781 48.0963 43.4208 44.9104C44.3634 41.7244 45.7146 38.6801 47.4115 35.9543C49.1083 33.1931 51.1822 30.7151 53.6018 28.7682C55.99 26.7858 58.818 25.3698 61.8032 25.0866L61.7718 25.299C60.9234 24.7326 60.0435 24.2724 59.1323 23.8476C58.221 23.4228 57.3097 22.998 56.3985 22.5732C57.3412 22.9272 58.2524 23.3166 59.1637 23.706C60.075 24.1308 60.9862 24.5556 61.8661 25.0866L62.1489 25.2636L61.8346 25.299C60.3892 25.5114 58.9437 25.9362 57.624 26.6088C56.2728 27.2814 55.0159 28.131 53.8532 29.1222C51.4965 31.1045 49.5482 33.5825 47.8828 36.3083C44.5834 41.7598 42.6666 48.2379 42.4466 54.8223C42.3524 58.1144 42.698 61.4066 43.5464 64.5572C43.9549 66.1147 44.5206 67.6723 45.149 69.1237C45.8089 70.6105 46.5316 72.0265 47.3801 73.3717C49.0769 76.062 51.1508 78.4338 53.4447 80.5224C55.77 82.6463 58.2838 84.3809 60.892 85.9385Z" fill="url(#paint16_linear_225_873)"/>
<defs>
<linearGradient id="paint0_linear_225_873" x1="64.6328" y1="38.4143" x2="35.7616" y2="119.953" gradientUnits="userSpaceOnUse">
<stop stop-color="#FF6624"/>
<stop offset="0.2454" stop-color="#EE5C1D"/>
<stop offset="0.7269" stop-color="#C3440B"/>
<stop offset="1" stop-color="#A83400"/>
</linearGradient>
<linearGradient id="paint1_linear_225_873" x1="95.7911" y1="61.0097" x2="18.0883" y2="61.3866" gradientUnits="userSpaceOnUse">
<stop stop-color="#FF6624"/>
<stop offset="0.2454" stop-color="#EE5C1D"/>
<stop offset="0.7269" stop-color="#C3440B"/>
<stop offset="1" stop-color="#A83400"/>
</linearGradient>
<linearGradient id="paint2_linear_225_873" x1="74.3416" y1="49.1988" x2="64.8037" y2="87.7904" gradientUnits="userSpaceOnUse">
<stop stop-color="#FF6624"/>
<stop offset="0.2454" stop-color="#EE5C1D"/>
<stop offset="0.7269" stop-color="#C3440B"/>
<stop offset="1" stop-color="#A83400"/>
</linearGradient>
<linearGradient id="paint3_linear_225_873" x1="68.2475" y1="54.8455" x2="55.012" y2="92.2302" gradientUnits="userSpaceOnUse">
<stop stop-color="#A83400"/>
<stop offset="0.2731" stop-color="#C3440B"/>
<stop offset="0.7546" stop-color="#EE5C1D"/>
<stop offset="1" stop-color="#FF6624"/>
</linearGradient>
<linearGradient id="paint4_linear_225_873" x1="89.6826" y1="59.6587" x2="68.484" y2="55.208" gradientUnits="userSpaceOnUse">
<stop stop-color="white"/>
<stop offset="0.2101" stop-color="#EEEEEE"/>
<stop offset="0.6219" stop-color="#C3C3C3"/>
<stop offset="1" stop-color="#969696"/>
</linearGradient>
<linearGradient id="paint5_linear_225_873" x1="73.3028" y1="45.5678" x2="62.1732" y2="88.3548" gradientUnits="userSpaceOnUse">
<stop stop-color="#FF6624"/>
<stop offset="0.1843" stop-color="#EE5E1F"/>
<stop offset="0.5478" stop-color="#C34712"/>
<stop offset="1" stop-color="#852800"/>
</linearGradient>
<linearGradient id="paint6_linear_225_873" x1="87.6026" y1="63.2361" x2="75.0892" y2="56.1024" gradientUnits="userSpaceOnUse">
<stop stop-color="white"/>
<stop offset="0.1567" stop-color="#EEEEEE"/>
<stop offset="0.4656" stop-color="#C3C3C3"/>
<stop offset="0.8935" stop-color="#7D7D7D"/>
<stop offset="1" stop-color="#6B6B6B"/>
</linearGradient>
<linearGradient id="paint7_linear_225_873" x1="69.0411" y1="63.2817" x2="61.7388" y2="83.9078" gradientUnits="userSpaceOnUse">
<stop stop-color="#FF6624"/>
<stop offset="0.2454" stop-color="#EE5C1D"/>
<stop offset="0.7269" stop-color="#C3440B"/>
<stop offset="1" stop-color="#A83400"/>
</linearGradient>
<linearGradient id="paint8_linear_225_873" x1="72.2652" y1="-0.886025" x2="65.8605" y2="15.4819" gradientUnits="userSpaceOnUse">
<stop stop-color="#FF6624"/>
<stop offset="0.1843" stop-color="#EE5E1F"/>
<stop offset="0.5478" stop-color="#C34712"/>
<stop offset="1" stop-color="#852800"/>
</linearGradient>
<linearGradient id="paint9_linear_225_873" x1="69.6396" y1="7.54517" x2="66.8615" y2="13.5403" gradientUnits="userSpaceOnUse">
<stop stop-color="white"/>
<stop offset="0.2101" stop-color="#EEEEEE"/>
<stop offset="0.6219" stop-color="#C3C3C3"/>
<stop offset="1" stop-color="#969696"/>
</linearGradient>
<linearGradient id="paint10_linear_225_873" x1="73.8187" y1="1.5933" x2="49.8387" y2="82.6869" gradientUnits="userSpaceOnUse">
<stop stop-color="#FF6624"/>
<stop offset="0.2454" stop-color="#EE5C1D"/>
<stop offset="0.7269" stop-color="#C3440B"/>
<stop offset="1" stop-color="#A83400"/>
</linearGradient>
<linearGradient id="paint11_linear_225_873" x1="63.6627" y1="-1.74226" x2="39.5291" y2="79.8705" gradientUnits="userSpaceOnUse">
<stop stop-color="#A83400"/>
<stop offset="0.2731" stop-color="#C3440B"/>
<stop offset="0.7546" stop-color="#EE5C1D"/>
<stop offset="1" stop-color="#FF6624"/>
</linearGradient>
<linearGradient id="paint12_linear_225_873" x1="85.3413" y1="-16.2347" x2="52.1663" y2="68.5475" gradientUnits="userSpaceOnUse">
<stop stop-color="#FF6624"/>
<stop offset="0.1843" stop-color="#EE5E1F"/>
<stop offset="0.5478" stop-color="#C34712"/>
<stop offset="1" stop-color="#852800"/>
</linearGradient>
<linearGradient id="paint13_linear_225_873" x1="83.2526" y1="11.4162" x2="37.9979" y2="76.8235" gradientUnits="userSpaceOnUse">
<stop stop-color="white"/>
<stop offset="0.2101" stop-color="#EEEEEE"/>
<stop offset="0.6219" stop-color="#C3C3C3"/>
<stop offset="1" stop-color="#969696"/>
</linearGradient>
<linearGradient id="paint14_linear_225_873" x1="90.2408" y1="7.72564" x2="47.1906" y2="64.1463" gradientUnits="userSpaceOnUse">
<stop stop-color="white"/>
<stop offset="0.1567" stop-color="#EEEEEE"/>
<stop offset="0.4656" stop-color="#C3C3C3"/>
<stop offset="0.8935" stop-color="#7D7D7D"/>
<stop offset="1" stop-color="#6B6B6B"/>
</linearGradient>
<linearGradient id="paint15_linear_225_873" x1="74.5263" y1="15.96" x2="62.0323" y2="58.2112" gradientUnits="userSpaceOnUse">
<stop stop-color="#FF6624"/>
<stop offset="0.2454" stop-color="#EE5C1D"/>
<stop offset="0.7269" stop-color="#C3440B"/>
<stop offset="1" stop-color="#A83400"/>
</linearGradient>
<linearGradient id="paint16_linear_225_873" x1="61.8198" y1="23.8177" x2="44.7473" y2="81.5519" gradientUnits="userSpaceOnUse">
<stop stop-color="#FF6624"/>
<stop offset="0.2454" stop-color="#EE5C1D"/>
<stop offset="0.7269" stop-color="#C3440B"/>
<stop offset="1" stop-color="#A83400"/>
</linearGradient>
</defs>
</svg>
